<mxfile host="app.diagrams.net" modified="2023-03-05T07:43:49.400Z" agent="5.0 (Macintosh; Intel Mac OS X 10_15_7) AppleWebKit/537.36 (KHTML, like Gecko) Chrome/110.0.0.0 Safari/537.36" etag="zD8AD2zRj66dkxkBUvqU" version="20.8.23" type="github">
  <diagram name="Страница 1" id="cHg1xsSfFfxs4tMhdqB8">
    <mxGraphModel dx="819" dy="542" grid="1" gridSize="10" guides="1" tooltips="1" connect="1" arrows="1" fold="1" page="1" pageScale="1" pageWidth="1169" pageHeight="827" math="0" shadow="0">
      <root>
        <mxCell id="0" />
        <mxCell id="1" parent="0" />
        <mxCell id="NdkZ7NG9v4w4pcFVTmxC-12" value="" style="rounded=0;whiteSpace=wrap;html=1;" parent="1" vertex="1">
          <mxGeometry x="410" y="460" width="120" height="60" as="geometry" />
        </mxCell>
        <mxCell id="NdkZ7NG9v4w4pcFVTmxC-1" value="Клиент" style="rounded=0;whiteSpace=wrap;html=1;" parent="1" vertex="1">
          <mxGeometry x="510" y="50" width="120" height="50" as="geometry" />
        </mxCell>
        <mxCell id="NdkZ7NG9v4w4pcFVTmxC-11" style="edgeStyle=orthogonalEdgeStyle;rounded=0;orthogonalLoop=1;jettySize=auto;html=1;" parent="1" source="NdkZ7NG9v4w4pcFVTmxC-2" target="NdkZ7NG9v4w4pcFVTmxC-4" edge="1">
          <mxGeometry relative="1" as="geometry" />
        </mxCell>
        <mxCell id="UsyGeMgkiecDtRh9sY03-1" style="edgeStyle=orthogonalEdgeStyle;rounded=0;orthogonalLoop=1;jettySize=auto;html=1;exitX=0.182;exitY=1.044;exitDx=0;exitDy=0;exitPerimeter=0;" edge="1" parent="1" source="NdkZ7NG9v4w4pcFVTmxC-5" target="NdkZ7NG9v4w4pcFVTmxC-2">
          <mxGeometry relative="1" as="geometry" />
        </mxCell>
        <mxCell id="NdkZ7NG9v4w4pcFVTmxC-2" value="Обработчик&amp;nbsp;" style="rounded=0;whiteSpace=wrap;html=1;" parent="1" vertex="1">
          <mxGeometry x="395" y="451" width="120" height="60" as="geometry" />
        </mxCell>
        <mxCell id="UsyGeMgkiecDtRh9sY03-4" style="edgeStyle=orthogonalEdgeStyle;rounded=0;orthogonalLoop=1;jettySize=auto;html=1;entryX=0.82;entryY=1;entryDx=0;entryDy=0;entryPerimeter=0;" edge="1" parent="1" source="NdkZ7NG9v4w4pcFVTmxC-4" target="NdkZ7NG9v4w4pcFVTmxC-5">
          <mxGeometry relative="1" as="geometry" />
        </mxCell>
        <mxCell id="NdkZ7NG9v4w4pcFVTmxC-4" value="Клиент-серверное взаимодействие" style="rounded=0;whiteSpace=wrap;html=1;" parent="1" vertex="1">
          <mxGeometry x="605" y="451" width="120" height="60" as="geometry" />
        </mxCell>
        <mxCell id="UsyGeMgkiecDtRh9sY03-10" style="edgeStyle=orthogonalEdgeStyle;rounded=0;orthogonalLoop=1;jettySize=auto;html=1;entryX=0.889;entryY=1.051;entryDx=0;entryDy=0;entryPerimeter=0;" edge="1" parent="1" source="NdkZ7NG9v4w4pcFVTmxC-5" target="NdkZ7NG9v4w4pcFVTmxC-6">
          <mxGeometry relative="1" as="geometry">
            <Array as="points">
              <mxPoint x="638" y="340" />
              <mxPoint x="638" y="340" />
            </Array>
          </mxGeometry>
        </mxCell>
        <mxCell id="UsyGeMgkiecDtRh9sY03-11" value="Новое состояние" style="edgeLabel;html=1;align=center;verticalAlign=middle;resizable=0;points=[];" vertex="1" connectable="0" parent="UsyGeMgkiecDtRh9sY03-10">
          <mxGeometry x="-0.075" y="-1" relative="1" as="geometry">
            <mxPoint x="26" as="offset" />
          </mxGeometry>
        </mxCell>
        <mxCell id="NdkZ7NG9v4w4pcFVTmxC-5" value="Шина" style="rounded=0;whiteSpace=wrap;html=1;" parent="1" vertex="1">
          <mxGeometry x="395" y="350" width="330" height="36" as="geometry" />
        </mxCell>
        <mxCell id="UsyGeMgkiecDtRh9sY03-3" style="edgeStyle=orthogonalEdgeStyle;rounded=0;orthogonalLoop=1;jettySize=auto;html=1;entryX=0.5;entryY=0;entryDx=0;entryDy=0;" edge="1" parent="1" source="NdkZ7NG9v4w4pcFVTmxC-6" target="NdkZ7NG9v4w4pcFVTmxC-5">
          <mxGeometry relative="1" as="geometry" />
        </mxCell>
        <mxCell id="UsyGeMgkiecDtRh9sY03-5" value="Разница карты" style="edgeLabel;html=1;align=center;verticalAlign=middle;resizable=0;points=[];" vertex="1" connectable="0" parent="UsyGeMgkiecDtRh9sY03-3">
          <mxGeometry x="-0.0798" relative="1" as="geometry">
            <mxPoint as="offset" />
          </mxGeometry>
        </mxCell>
        <mxCell id="NdkZ7NG9v4w4pcFVTmxC-6" value="Load balancer" style="rounded=0;whiteSpace=wrap;html=1;" parent="1" vertex="1">
          <mxGeometry x="460" y="250" width="200" height="50" as="geometry" />
        </mxCell>
        <mxCell id="UsyGeMgkiecDtRh9sY03-8" style="edgeStyle=orthogonalEdgeStyle;rounded=0;orthogonalLoop=1;jettySize=auto;html=1;" edge="1" parent="1" source="UsyGeMgkiecDtRh9sY03-7">
          <mxGeometry relative="1" as="geometry">
            <mxPoint x="560" y="220" as="targetPoint" />
          </mxGeometry>
        </mxCell>
        <mxCell id="UsyGeMgkiecDtRh9sY03-7" value="Формирователь сообщения (оптимизатор)" style="rounded=0;whiteSpace=wrap;html=1;" vertex="1" parent="1">
          <mxGeometry x="460" y="140" width="200" height="50" as="geometry" />
        </mxCell>
        <mxCell id="UsyGeMgkiecDtRh9sY03-9" value="Сообщение: время, id клиента, изменение состояния" style="edgeLabel;html=1;align=center;verticalAlign=middle;resizable=0;points=[];" vertex="1" connectable="0" parent="1">
          <mxGeometry x="960.0000000000002" y="289.9986206896551" as="geometry" />
        </mxCell>
      </root>
    </mxGraphModel>
  </diagram>
</mxfile>
